<svg width="150" height="150" viewBox="0 0 150 150" fill="none" xmlns="http://www.w3.org/2000/svg">
<path d="M150 0H0V150H150V0Z" fill="#6939F9"/>
<path d="M75.4229 120.438H70.0195V101.954H75.4229V120.438ZM83.2422 120.438H77.8398V101.954H83.2422V120.438ZM112.476 73.3232C118.163 73.3232 122.713 77.8733 122.713 83.5605C122.855 89.2476 118.162 93.7969 112.476 93.7969C106.789 93.7969 102.097 89.2476 102.097 83.5605C102.097 77.8734 106.789 73.3233 112.476 73.3232ZM51.749 92.8965H29L40.374 73.2754L51.749 92.8965ZM112.476 78.584C109.774 78.584 107.5 80.8592 107.5 83.5605C107.5 86.2618 109.632 88.3945 112.476 88.3945C115.176 88.3945 117.309 86.2618 117.31 83.5605C117.452 80.8591 115.177 78.584 112.476 78.584ZM37.8154 87.9199H42.9336L40.374 83.5127L37.8154 87.9199ZM105.521 33.8389L100.26 39.0996L107.085 45.9238L97.9854 55.0234L94.1465 51.1846L99.4072 45.9238L92.582 39.0996L96.4219 35.2607L101.682 30L105.521 33.8389ZM64.0879 35.8291L57.5479 42.3691L64.0879 48.9092L60.249 52.749L53.709 46.208L47.1689 52.749L43.3301 48.9092L49.8701 42.3691L43.3301 35.8291L47.1689 31.9902L53.709 38.5303L60.249 31.9902L64.0879 35.8291Z" fill="#F6FAFF"/>
</svg>
